<svg width="100" height="16" viewBox="0 0 100 16" fill="none" xmlns="http://www.w3.org/2000/svg">
<path d="M9.96499 0.0818136V5.16875C9.96499 5.20825 9.91716 5.22236 9.89466 5.19415C8.30791 3.12044 6.31885 1.36272 4.05127 0.045143C4.00344 0.0169293 3.94718 0.00281552 3.89372 0.00281552C3.32261 0.00281552 0.0787743 0.00281552 0.0787743 0.00281552C0.0337602 0.00281552 0 0.039493 0 0.0818136V15.9154C0 15.9605 0.0365736 15.9944 0.0787743 15.9944H3.90779C3.9528 15.9944 3.98656 15.9577 3.98656 15.9154V4.90636C3.98656 4.87251 4.02595 4.85276 4.05127 4.87533C4.50141 5.23929 4.93467 5.62863 5.34823 6.04338C8.02095 8.72368 9.6302 12.1883 9.95655 15.921C9.95937 15.9633 9.99313 15.9944 10.0353 15.9944H13.8728C13.9178 15.9944 13.9516 15.9577 13.9516 15.9154V0.0818136C13.9516 0.0366716 13.915 0.00281552 13.8728 0.00281552H10.0438C9.99875 0.00281552 9.96499 0.039493 9.96499 0.0818136Z" fill="black"/>
<path d="M20.85 9.83248H27.3939C27.4333 9.83248 27.4642 9.80427 27.4727 9.76759L28.0916 6.32834C28.1 6.28037 28.0635 6.23523 28.0128 6.23523H20.85C20.8275 6.23523 20.8106 6.2183 20.8106 6.19573V3.72139C20.8106 3.69882 20.8275 3.68189 20.85 3.68189H27.9903C28.0297 3.68189 28.0635 3.65367 28.0691 3.61699L28.688 0.0987498C28.6965 0.0507864 28.6599 0.00563965 28.6093 0.00563965H16.8212C16.7762 0.00563965 16.7424 0.0423171 16.7424 0.0846377V15.921C16.7424 15.9661 16.779 16 16.8212 16H27.9903C28.0297 16 28.0635 15.9718 28.0691 15.9351L28.688 12.4169C28.6965 12.3689 28.6599 12.3238 28.6093 12.3238H20.85C20.8275 12.3238 20.8106 12.3068 20.8106 12.2842V9.88044C20.8106 9.85787 20.8275 9.84095 20.85 9.84095V9.83248Z" fill="black"/>
<path d="M80.6906 0H73.5615C73.5164 0 73.4827 0.0366775 73.4827 0.0789981V15.9154C73.4827 15.9605 73.5193 15.9944 73.5615 15.9944H77.548C77.593 15.9944 77.6268 15.9577 77.6268 15.9154V11.4378C77.6268 11.4153 77.6437 11.3983 77.6662 11.3983H80.1982C84.0891 11.3983 86.6381 9.40081 86.6381 5.69917C86.6381 1.99753 84.2889 0 80.6878 0H80.6906ZM82.2942 5.77817C82.2942 6.99418 81.3123 7.97884 80.0998 7.97884H77.6662C77.6437 7.97884 77.6268 7.96191 77.6268 7.93934V3.54082C77.6268 3.51825 77.6437 3.50132 77.6662 3.50132H80.0998C81.3123 3.50132 82.2942 4.48598 82.2942 5.70199V5.78099V5.77817Z" fill="black"/>
<path d="M41.0191 10.6676C42.98 9.82402 44.1476 8.11709 44.1476 5.63992C44.1476 1.87057 41.7984 0.00281552 38.1973 0.00281552H31.0682C31.0231 0.00281552 30.9894 0.039493 30.9894 0.0818136V15.9182C30.9894 15.9633 31.026 15.9972 31.0682 15.9972H35.0547C35.0997 15.9972 35.1335 15.9605 35.1335 15.9182V11.3193C35.1335 11.2968 35.1504 11.2798 35.1729 11.2798H36.0816C36.1407 11.2798 36.1998 11.2855 36.256 11.2996C38.0482 11.7256 39.4436 13.5934 39.6743 15.9266C39.6771 15.969 39.7137 16 39.7531 16H44.3811C44.4317 16 44.4711 15.952 44.4599 15.9013C43.9281 13.788 42.6902 11.957 41.0135 10.6704L41.0191 10.6676ZM35.1729 3.4985H37.6065C38.819 3.4985 39.8009 4.48316 39.8009 5.69917V5.77817C39.8009 6.99418 38.819 7.97884 37.6065 7.97884H35.1729C35.1504 7.97884 35.1335 7.96191 35.1335 7.93934V3.54082C35.1335 3.51825 35.1504 3.50132 35.1729 3.50132V3.4985Z" fill="black"/>
<path d="M62.8059 0.126957L50.9644 15.9633C50.9503 15.9831 50.925 15.9944 50.8997 15.9944H47.0313C46.9863 15.9944 46.9525 15.9577 46.9525 15.9154V0.0789981C46.9525 0.0338561 46.9891 0 47.0313 0H50.8603C50.9053 0 50.9391 0.0366775 50.9391 0.0789981V9.28795C50.9391 9.32745 50.9869 9.34156 51.0122 9.31334L57.9528 0.031031C57.9669 0.0112814 57.9922 0 58.0175 0H62.744C62.8087 0 62.8481 0.0761719 62.8087 0.126957H62.8059Z" fill="black"/>
<path d="M54.8356 15.8674L66.6771 0.031031C66.6912 0.0112814 66.7165 0 66.7418 0H70.6102C70.6552 0 70.689 0.0366775 70.689 0.0789981V15.9154C70.689 15.9605 70.6524 15.9944 70.6102 15.9944H66.7812C66.7362 15.9944 66.7024 15.9577 66.7024 15.9154V6.7064C66.7024 6.6669 66.6546 6.65279 66.6293 6.68101L59.6887 15.9633C59.6746 15.9831 59.6493 15.9944 59.624 15.9944H54.8975C54.8328 15.9944 54.7934 15.9182 54.8328 15.8674H54.8356Z" fill="black"/>
<path d="M92.1607 9.83248H98.7046C98.744 9.83248 98.775 9.80427 98.7834 9.76759L99.4024 6.32834C99.4108 6.28037 99.3742 6.23523 99.3236 6.23523H92.1607C92.1382 6.23523 92.1213 6.2183 92.1213 6.19573V3.72139C92.1213 3.69882 92.1382 3.68189 92.1607 3.68189H99.3011C99.3405 3.68189 99.3742 3.65367 99.3798 3.61699L99.9988 0.0987498C100.007 0.0507864 99.9707 0.00563965 99.92 0.00563965H88.132C88.0869 0.00563965 88.0532 0.0423171 88.0532 0.0846377V15.921C88.0532 15.9661 88.0898 16 88.132 16H99.3011C99.3405 16 99.3742 15.9718 99.3798 15.9351L99.9988 12.4169C100.007 12.3689 99.9707 12.3238 99.92 12.3238H92.1607C92.1382 12.3238 92.1213 12.3068 92.1213 12.2842V9.88044C92.1213 9.85787 92.1382 9.84095 92.1607 9.84095V9.83248Z" fill="black"/>
</svg>
