<svg width="104" height="38" viewBox="0 0 104 38" fill="none" xmlns="http://www.w3.org/2000/svg">
<path d="M42.7739 29.6178L40.2227 10.5861H42.7995L43.9084 20.4777L43.9597 21.0983H44.1649L44.2419 20.4777L45.4277 10.5861H47.4383L48.6241 20.4777L48.7011 21.0983H48.9063L48.9576 20.4777L50.0664 10.5861H52.6433L50.0921 29.6178H47.9276L46.6392 20.6066L46.4853 19.4923H46.3827L46.2288 20.6066L44.9403 29.6178H42.7758H42.7739Z" fill="#8558DD"/>
<path d="M59.06 29.824C58.2865 29.824 57.6236 29.6436 57.0692 29.2808C56.5147 28.9179 56.0905 28.4262 55.7945 27.8057C55.4986 27.1851 55.3506 26.4852 55.3506 25.708V14.496C55.3506 13.7108 55.4986 13.009 55.7945 12.3924C56.0905 11.7757 56.5167 11.286 57.0692 10.9232C57.6236 10.5604 58.2865 10.3799 59.06 10.3799C59.8335 10.3799 60.4964 10.5604 61.0509 10.9232C61.6053 11.286 62.0295 11.7777 62.3255 12.3983C62.6214 13.0189 62.7694 13.7188 62.7694 14.496V25.708C62.7694 26.4852 62.6214 27.1831 62.3255 27.8057C62.0295 28.4282 61.6033 28.9199 61.0509 29.2808C60.4964 29.6436 59.8335 29.824 59.06 29.824ZM59.06 27.1058C59.4033 27.1058 59.644 26.961 59.7822 26.6716C59.9203 26.3821 59.9874 26.0609 59.9874 25.706V14.494C59.9874 14.1411 59.9144 13.8179 59.7683 13.5284C59.6223 13.239 59.3856 13.0942 59.06 13.0942C58.7344 13.0942 58.5075 13.239 58.3576 13.5284C58.2076 13.8179 58.1327 14.1391 58.1327 14.494V25.706C58.1327 26.0609 58.2057 26.3821 58.3517 26.6716C58.4977 26.961 58.7344 27.1058 59.06 27.1058Z" fill="#8558DD"/>
<path d="M66.1191 29.6178V10.5861H68.9032C70.5704 10.5861 71.7977 11.0501 72.5889 11.978C73.3782 12.9058 73.7748 14.2719 73.7748 16.0761C73.7748 17.1468 73.5873 18.0727 73.2144 18.8539C72.8415 19.635 72.3877 20.2061 71.8549 20.5689L73.7491 29.6198H70.9651L69.3925 21.5919H68.9032V29.6198H66.1191V29.6178ZM68.9032 19.0006C69.4182 19.0006 69.8266 18.8856 70.1265 18.6576C70.4264 18.4296 70.6415 18.1024 70.7697 17.6801C70.898 17.2578 70.9631 16.7562 70.9631 16.1773C70.9631 15.2712 70.8151 14.5733 70.5191 14.0855C70.2232 13.5978 69.6845 13.3539 68.9012 13.3539V18.9986L68.9032 19.0006Z" fill="#8558DD"/>
<path d="M76.7363 29.6178V10.5861H79.5204V27.0284H83.2061V29.6178H76.7383H76.7363Z" fill="#8558DD"/>
<path d="M85.7549 29.6178V10.5861H88.5902C89.484 10.5861 90.2397 10.7328 90.8573 11.0263C91.4749 11.3197 91.9741 11.8213 92.3509 12.5272C92.7278 13.235 93.0021 14.2065 93.1698 15.4397C93.3375 16.6749 93.4204 18.2313 93.4204 20.1129C93.4204 21.9944 93.3375 23.5627 93.1698 24.794C93.0021 26.0252 92.7298 26.9908 92.3509 27.6946C91.9721 28.3985 91.4749 28.8941 90.8573 29.1836C90.2397 29.4731 89.4821 29.6178 88.5902 29.6178H85.7549ZM88.5369 26.8203C89.2236 26.8203 89.709 26.5486 89.9931 26.0054C90.2772 25.4621 90.4489 24.6849 90.5081 23.6757C90.5673 22.6666 90.5988 21.467 90.5988 20.0772C90.5988 18.6873 90.5692 17.468 90.5081 16.4707C90.4489 15.4734 90.2733 14.7101 89.9872 14.1787C89.6991 13.6474 89.2157 13.3817 88.5369 13.3817V26.8203Z" fill="#8558DD"/>
<path d="M100.259 29.824C99.675 29.824 99.1699 29.7308 98.7456 29.5464C98.3214 29.3601 97.9682 29.0983 97.69 28.7573C97.4099 28.4163 97.1889 28.0098 97.0271 27.54C96.8633 27.0701 96.7469 26.5447 96.6798 25.9677C96.6107 25.3888 96.5772 24.7761 96.5772 24.1298H99.308C99.308 24.6829 99.3257 25.2063 99.3593 25.702C99.3928 26.1977 99.4796 26.6002 99.6178 26.9055C99.7559 27.2128 99.969 27.3655 100.261 27.3655C100.553 27.3655 100.77 27.2465 100.912 27.0086C101.054 26.7707 101.149 26.4693 101.196 26.1025C101.244 25.7357 101.267 25.3531 101.267 24.9565C101.267 23.9216 101.196 23.1285 101.054 22.5813C100.912 22.0341 100.663 21.6475 100.306 21.4234C99.9492 21.1994 99.4461 21.0645 98.793 21.0229V18.6933C99.4461 18.6596 99.9315 18.5386 100.249 18.3304C100.567 18.1242 100.778 17.7793 100.881 17.3014C100.983 16.8236 101.034 16.1554 101.034 15.3009C101.034 14.8786 101.019 14.4781 100.989 14.1034C100.959 13.7286 100.884 13.4233 100.764 13.1913C100.644 12.9574 100.443 12.8424 100.158 12.8424C99.892 12.8424 99.6908 12.9951 99.5526 13.3024C99.4145 13.6097 99.3218 14.0082 99.2764 14.4999C99.229 14.9916 99.2054 15.519 99.2054 16.0801H96.4746C96.4746 15.2513 96.5299 14.49 96.6423 13.7941C96.7548 13.1001 96.9462 12.4974 97.2224 11.9879C97.4967 11.4783 97.8735 11.0838 98.3491 10.8022C98.8265 10.5227 99.4283 10.3819 100.158 10.3819C100.742 10.3819 101.259 10.4909 101.711 10.713C102.163 10.9331 102.54 11.2364 102.846 11.625C103.15 12.0136 103.38 12.4617 103.534 12.9713C103.688 13.4808 103.767 14.0241 103.767 14.603C103.767 15.4655 103.706 16.2447 103.588 16.9406C103.467 17.6365 103.29 18.2234 103.053 18.7012C102.816 19.181 102.514 19.5399 102.145 19.7818C102.755 20.2477 103.217 20.9178 103.53 21.7882C103.844 22.6606 104 23.648 104 24.7523C104 25.6247 103.86 26.4455 103.582 27.2188C103.302 27.992 102.887 28.6185 102.339 29.1023C101.788 29.5861 101.098 29.828 100.265 29.828L100.259 29.824Z" fill="black"/>
<path d="M36.1947 18.9993L18.0977 0.814453L0.000652566 18.9993L18.0977 37.1842L36.1947 18.9993Z" fill="black"/>
<path d="M21.0901 3.82306L6.74171 18.2411L6.69238 19.4188L9.68557 22.4265L20.8454 11.2125L23.3414 13.7206L12.7932 24.3199L12.7439 25.4996L15.7371 28.5054L26.8969 17.2933L29.3929 19.8014L15.0938 34.1679L18.0969 37.1855L36.1941 19.0004L21.0901 3.82306Z" fill="#542B53"/>
<path d="M21.1677 3.65594L6.81934 18.0739L9.81252 21.0817L20.9724 9.86766L24.0307 12.9388L12.8708 24.1528L15.864 27.1605L27.0238 15.9465L30.09 19.0296L15.1813 34.0107L18.1745 37.0184L36.2717 18.8333L21.1677 3.65594Z" fill="url(#paint0_radial_4065_1369)"/>
<defs>
<radialGradient id="paint0_radial_4065_1369" cx="0" cy="0" r="1" gradientUnits="userSpaceOnUse" gradientTransform="translate(15.0215 24.8527) scale(15.9979 16.0755)">
<stop stop-color="#AE508E"/>
<stop offset="1" stop-color="#8558DD"/>
</radialGradient>
</defs>
</svg>
