<?xml version="1.0" encoding="UTF-8"?>
<svg width="962px" height="370px" viewBox="0 0 962 370" version="1.1" xmlns="http://www.w3.org/2000/svg" xmlns:xlink="http://www.w3.org/1999/xlink">
    <title>Group 2</title>
    <g id="Logo" stroke="none" stroke-width="1" fill="none" fill-rule="evenodd">
        <g id="Artboard" transform="translate(-692, -886)" fill="#FFFFFF">
            <g id="Group-2" transform="translate(692, 886)">
                <path d="M222,0 L296,74 L296,148 L222,148 L222,222 L74,222 L74,296 L222,296 L222,370 L0,370 L0,0 L222,0 Z M666,370 L518,370 L444,296 L444,370 L296,370 L222,296 L222,222 L296,222 L296,148 L444,148 L518,222 L518,296 L666,296 L666,222 L518,222 L518,148 L666,148 L666,148.880312 L740,222 L740,148 L814,148 L814,296 L888,296 L962,370 L740,370 L740,296 L666,296 L666,370 Z M444,222 L296,222 L296,296 L444,296 L444,222 Z M222,74 L74,74 L74,148 L222,148 L222,74 Z" id="Combined-Shape"></path>
                <g id="Network" transform="translate(360, 13.5)" fill-rule="nonzero">
                    <path d="M21.6666702,21.6666702 L32.5000053,21.6666702 L32.5000053,43.3333404 L21.6666702,43.3333404 L21.6666702,21.6666702 Z M32.5000053,43.3333404 L43.3333404,43.3333404 L43.3333404,65.0000107 L32.5000053,65.0000107 L32.5000053,43.3333404 Z M0,0 L10.8333351,0 L10.8333351,10.8333351 L21.6666702,10.8333351 L21.6666702,21.6666702 L10.8333351,21.6666702 L10.8333351,97.500016 L0,97.500016 L0,0 Z M54.1666755,0 L65.0000107,0 L65.0000107,97.500016 L54.1666755,97.500016 L54.1666755,86.6666809 L43.3333404,86.6666809 L43.3333404,65.0000107 L54.1666755,65.0000107 L54.1666755,0 Z" id="Shape"></path>
                    <path d="M119.166668,43.3333404 L86.6666684,43.3333404 L86.6666684,32.5000053 L119.166668,32.5000053 L119.166668,43.3333404 Z M130.000009,65.0000107 L86.6666684,65.0000107 L86.6666684,86.6666809 L75.8333333,86.6666809 L75.8333333,43.3333404 L86.6666684,43.3333404 L86.6666684,54.1666755 L119.166674,54.1666755 L119.166674,43.3333404 L130.000009,43.3333404 L130.000009,65.0000107 Z M119.166674,75.8333458 L130.000009,75.8333458 L130.000009,86.6666809 L119.166674,86.6666809 L119.166674,75.8333458 Z M119.166668,97.500016 L86.6666684,97.500016 L86.6666684,86.6666809 L119.166668,86.6666809 L119.166668,97.500016 Z" id="Shape"></path>
                    <path d="M151.666668,43.3333404 L140.833333,43.3333404 L140.833333,32.5 L151.666668,32.5 L151.666668,0 L162.500004,0 L162.500004,32.5 L184.166674,32.5 L184.166674,43.3333404 L162.500004,43.3333404 L162.500004,86.6666809 L151.666668,86.6666809 L151.666668,43.3333404 Z M184.166674,97.500016 L162.500004,97.500016 L162.500004,86.6666809 L184.166674,86.6666809 L184.166674,97.500016 Z" id="Shape"></path>
                    <path d="M227.500005,32.5000053 L238.33334,32.5000053 L238.33334,54.1666755 L227.500005,54.1666755 L227.500005,32.5000053 Z M195,32.5000053 L205.833335,32.5000053 L205.833335,75.8333458 L195,75.8333458 L195,32.5000053 Z M216.66667,54.1666755 L227.500005,54.1666755 L227.500005,75.8333458 L216.66667,75.8333458 L216.66667,54.1666755 Z M238.33334,54.1666755 L249.166676,54.1666755 L249.166676,75.8333458 L238.33334,75.8333458 L238.33334,54.1666755 Z M260.000011,32.5000053 L270.833346,32.5000053 L270.833346,75.8333458 L260.000011,75.8333458 L260.000011,32.5000053 Z M205.833335,75.8333458 L216.66667,75.8333458 L216.66667,97.500016 L205.833335,97.500016 L205.833335,75.8333458 Z M249.166676,75.8333458 L260.000011,75.8333458 L260.000011,97.500016 L249.166676,97.500016 L249.166676,75.8333458 Z" id="Shape"></path>
                    <path d="M325.000002,43.3333404 L292.500002,43.3333404 L292.500002,32.5000053 L325.000002,32.5000053 L325.000002,43.3333404 Z M281.666667,43.3333404 L292.500002,43.3333404 L292.500002,86.6666809 L281.666667,86.6666809 L281.666667,43.3333404 Z M325.000007,43.3333404 L335.833342,43.3333404 L335.833342,86.6666809 L325.000007,86.6666809 L325.000007,43.3333404 Z M325.000002,97.500016 L292.500002,97.500016 L292.500002,86.6666809 L325.000002,86.6666809 L325.000002,97.500016 Z" id="Shape"></path>
                    <path d="M390.000007,43.3333404 L368.333337,43.3333404 L368.333337,32.5000053 L390.000007,32.5000053 L390.000007,43.3333404 Z M346.666667,32.5000053 L357.500002,32.5000053 L357.500002,43.3333404 L368.333337,43.3333404 L368.333337,54.1666755 L357.500002,54.1666755 L357.500002,97.500016 L346.666667,97.500016 L346.666667,32.5000053 Z" id="Shape"></path>
                    <path d="M444.166674,32.5000053 L455.000009,32.5000053 L455.000009,43.3333404 L444.166674,43.3333404 L444.166674,32.5000053 Z M422.500004,43.3333404 L444.166674,43.3333404 L444.166674,54.1666755 L422.500004,54.1666755 L422.500004,43.3333404 Z M422.500004,65.0000107 L433.333339,65.0000107 L433.333339,75.8333458 L422.500004,75.8333458 L422.500004,65.0000107 Z M433.333339,75.8333458 L444.166674,75.8333458 L444.166674,86.6666809 L433.333339,86.6666809 L433.333339,75.8333458 Z M400.833333,0 L411.666668,0 L411.666668,54.1666755 L422.500004,54.1666755 L422.500004,65.0000107 L411.666668,65.0000107 L411.666668,97.500016 L400.833333,97.500016 L400.833333,0 Z M444.166674,86.6666809 L455.000009,86.6666809 L455.000009,97.500016 L444.166674,97.500016 L444.166674,86.6666809 Z" id="Shape"></path>
                </g>
            </g>
        </g>
    </g>
</svg>